<svg width="80" height="134" viewBox="0 0 80 134" fill="none" xmlns="http://www.w3.org/2000/svg">
<path fill-rule="evenodd" clip-rule="evenodd" d="M79.6826 121.279C70.4811 114.931 62.847 120.5 55.8574 126.797C64.8858 129.257 74.4478 130.375 79.6826 121.279Z" fill="black"/>
<path fill-rule="evenodd" clip-rule="evenodd" d="M79.4326 121.301L56.1973 126.766C65.9261 129.178 74.4664 129.929 79.4326 121.301Z" fill="black"/>
<path fill-rule="evenodd" clip-rule="evenodd" d="M77.47 115.815C77.0663 104.635 68.0449 101.824 58.8242 99.9648C62.2411 108.686 67.0529 117.036 77.47 115.815Z" fill="black"/>
<path fill-rule="evenodd" clip-rule="evenodd" d="M77.3003 115.63L59.0488 100.223C62.9226 109.478 67.4186 116.788 77.3003 115.63Z" fill="black"/>
<path fill-rule="evenodd" clip-rule="evenodd" d="M63.2821 116.24C54.6499 109.137 46.5727 114.04 39.0762 119.723C47.8643 122.938 57.2976 124.861 63.2821 116.24Z" fill="black"/>
<path fill-rule="evenodd" clip-rule="evenodd" d="M63.0317 116.243L39.418 119.723C48.9082 122.949 57.3544 124.42 63.0317 116.243Z" fill="black"/>
<path fill-rule="evenodd" clip-rule="evenodd" d="M55.2835 110.933C60.6578 101.133 54.3534 94.0781 47.3906 87.7383C45.8604 96.9799 45.7179 106.62 55.2835 110.933Z" fill="black"/>
<path fill-rule="evenodd" clip-rule="evenodd" d="M55.2339 110.686L47.4531 88.0742C46.0418 98.0091 46.1602 106.595 55.2339 110.686Z" fill="black"/>
<path fill-rule="evenodd" clip-rule="evenodd" d="M48.2954 110.714C41.9483 101.51 32.8345 104.003 24.0645 107.406C31.6303 112.914 40.1718 117.357 48.2954 110.714Z" fill="black"/>
<path fill-rule="evenodd" clip-rule="evenodd" d="M48.0535 110.651L24.3926 107.504C32.6304 113.216 40.3471 116.952 48.0535 110.651Z" fill="black"/>
<path fill-rule="evenodd" clip-rule="evenodd" d="M39.3302 102.506C47.544 94.9291 43.813 86.2327 39.2305 78.0039C34.8385 86.2766 31.6352 95.3692 39.3302 102.506Z" fill="black"/>
<path fill-rule="evenodd" clip-rule="evenodd" d="M39.3625 102.258L39.1836 78.3438C34.6837 87.3115 32.0634 95.4876 39.3625 102.258Z" fill="black"/>
<path fill-rule="evenodd" clip-rule="evenodd" d="M34.963 101.573C30.482 91.3299 21.0602 92.043 11.8027 93.7148C18.1831 100.562 25.724 106.549 34.963 101.573Z" fill="black"/>
<path fill-rule="evenodd" clip-rule="evenodd" d="M34.7386 101.464L12.1074 93.8711C19.1088 101.046 25.9742 106.183 34.7386 101.464Z" fill="black"/>
<path fill-rule="evenodd" clip-rule="evenodd" d="M27.4787 91.6739C36.9547 85.7513 34.901 76.5139 31.9238 67.5781C26.0743 74.8929 21.2408 83.2338 27.4787 91.6739Z" fill="black"/>
<path fill-rule="evenodd" clip-rule="evenodd" d="M27.5561 91.4345L31.8145 67.9023C25.7299 75.8799 21.6392 83.4281 27.5561 91.4345Z" fill="black"/>
<path fill-rule="evenodd" clip-rule="evenodd" d="M24.174 90.2833C21.7091 79.3753 12.3224 78.2912 2.91602 78.1797C7.88768 86.1123 14.1614 93.4199 24.174 90.2833Z" fill="black"/>
<path fill-rule="evenodd" clip-rule="evenodd" d="M23.9742 90.1291L3.18555 78.3867C8.70505 86.759 14.4761 93.1039 23.9742 90.1291Z" fill="black"/>
<path fill-rule="evenodd" clip-rule="evenodd" d="M21.3602 74.2557C31.4491 69.462 30.4621 60.0484 28.5234 50.8281C21.8784 57.4223 16.1256 65.1528 21.3602 74.2557Z" fill="black"/>
<path fill-rule="evenodd" clip-rule="evenodd" d="M21.4634 74.0266L28.377 51.1367C21.4229 58.3626 16.4985 65.3912 21.4634 74.0266Z" fill="black"/>
<path fill-rule="evenodd" clip-rule="evenodd" d="M19.6772 77.3706C18.5223 66.2449 9.33149 64.0508 0.00585938 62.8203C4.00201 71.2898 9.36493 79.2935 19.6772 77.3706Z" fill="black"/>
<path fill-rule="evenodd" clip-rule="evenodd" d="M19.4962 77.1982L0.248047 63.0625C4.736 72.0338 9.71391 79.0216 19.4962 77.1982Z" fill="black"/>
<path fill-rule="evenodd" clip-rule="evenodd" d="M17.1138 56.0215C28.0181 53.599 29.1604 44.204 29.332 34.7852C21.3817 39.7303 14.047 45.982 17.1138 56.0215Z" fill="black"/>
<path fill-rule="evenodd" clip-rule="evenodd" d="M17.2677 55.8174L29.1211 35.0547C20.7281 40.5442 14.3576 46.2945 17.2677 55.8174Z" fill="black"/>
<path fill-rule="evenodd" clip-rule="evenodd" d="M14.9866 64.2215C18.1404 53.494 10.4765 47.9562 2.32227 43.2578C2.8029 52.6142 4.72376 62.0619 14.9866 64.2215Z" fill="black"/>
<path fill-rule="evenodd" clip-rule="evenodd" d="M14.8835 63.993L2.45312 43.5742C3.19799 53.5824 5.14837 61.9438 14.8835 63.993Z" fill="black"/>
<path fill-rule="evenodd" clip-rule="evenodd" d="M21.4042 34.9298C32.5573 35.4889 36.1342 26.7305 38.7812 17.6914C29.812 20.3499 21.0921 24.432 21.4042 34.9298Z" fill="black"/>
<path fill-rule="evenodd" clip-rule="evenodd" d="M21.6032 34.7811L38.5059 17.8945C28.966 20.965 21.3075 24.8232 21.6032 34.7811Z" fill="black"/>
<path fill-rule="evenodd" clip-rule="evenodd" d="M14.2305 46.9745C20.9305 38.03 15.6813 30.1569 9.67969 22.8984C6.86424 31.832 5.36664 41.3556 14.2305 46.9745Z" fill="black"/>
<path fill-rule="evenodd" clip-rule="evenodd" d="M14.2151 46.7258L9.69336 23.2422C6.89805 32.8789 5.80726 41.3953 14.2151 46.7258Z" fill="black"/>
<path fill-rule="evenodd" clip-rule="evenodd" d="M26.2792 19.0125C37.4288 18.3634 40.0472 9.27104 41.7109 0C33.0774 3.61157 24.8444 8.6113 26.2792 19.0125Z" fill="black"/>
<path fill-rule="evenodd" clip-rule="evenodd" d="M26.4606 18.8385L41.459 0.230469C32.302 4.31106 25.1001 8.97188 26.4606 18.8385Z" fill="black"/>
<path fill-rule="evenodd" clip-rule="evenodd" d="M19.1698 28.6706C27.5454 21.2728 24.0032 12.4978 19.5996 4.17188C15.0299 12.3477 11.6308 21.3689 19.1698 28.6706Z" fill="black"/>
<path fill-rule="evenodd" clip-rule="evenodd" d="M19.2069 28.4205L19.5449 4.50781C14.8522 13.3762 12.0559 21.4937 19.2069 28.4205Z" fill="black"/>
</svg>
