<svg width="80" height="134" viewBox="0 0 80 134" fill="none" xmlns="http://www.w3.org/2000/svg">
<path fill-rule="evenodd" clip-rule="evenodd" d="M0.18954 121.279C9.39101 114.931 17.0251 120.5 24.0147 126.797C14.9863 129.257 5.4243 130.375 0.18954 121.279Z" fill="black"/>
<path fill-rule="evenodd" clip-rule="evenodd" d="M0.439558 121.301L23.6749 126.766C13.946 129.178 5.40573 129.929 0.439558 121.301Z" fill="black"/>
<path fill-rule="evenodd" clip-rule="evenodd" d="M2.40214 115.815C2.80587 104.635 11.8272 101.824 21.0479 99.9648C17.631 108.686 12.8192 117.036 2.40214 115.815Z" fill="black"/>
<path fill-rule="evenodd" clip-rule="evenodd" d="M2.57181 115.63L20.8233 100.223C16.9495 109.478 12.4535 116.788 2.57181 115.63Z" fill="black"/>
<path fill-rule="evenodd" clip-rule="evenodd" d="M16.59 116.24C25.2222 109.137 33.2994 114.04 40.796 119.723C32.0078 122.938 22.5745 124.861 16.59 116.24Z" fill="black"/>
<path fill-rule="evenodd" clip-rule="evenodd" d="M16.8404 116.243L40.4542 119.723C30.964 122.949 22.5177 124.42 16.8404 116.243Z" fill="black"/>
<path fill-rule="evenodd" clip-rule="evenodd" d="M24.5887 110.933C19.2143 101.133 25.5187 94.0781 32.4815 87.7383C34.0117 96.9799 34.1543 106.62 24.5887 110.933Z" fill="black"/>
<path fill-rule="evenodd" clip-rule="evenodd" d="M24.6382 110.686L32.419 88.0742C33.8303 98.0091 33.7119 106.595 24.6382 110.686Z" fill="black"/>
<path fill-rule="evenodd" clip-rule="evenodd" d="M31.5767 110.714C37.9238 101.51 47.0376 104.003 55.8077 107.406C48.2418 112.914 39.7004 117.357 31.5767 110.714Z" fill="black"/>
<path fill-rule="evenodd" clip-rule="evenodd" d="M31.8186 110.651L55.4795 107.504C47.2417 113.216 39.5251 116.952 31.8186 110.651Z" fill="black"/>
<path fill-rule="evenodd" clip-rule="evenodd" d="M40.5419 102.506C32.3281 94.9291 36.0591 86.2327 40.6417 78.0039C45.0336 86.2766 48.2369 95.3692 40.5419 102.506Z" fill="black"/>
<path fill-rule="evenodd" clip-rule="evenodd" d="M40.5096 102.258L40.6885 78.3438C45.1885 87.3115 47.8087 95.4876 40.5096 102.258Z" fill="black"/>
<path fill-rule="evenodd" clip-rule="evenodd" d="M44.9091 101.573C49.3901 91.3299 58.812 92.043 68.0694 93.7148C61.689 100.562 54.1482 106.549 44.9091 101.573Z" fill="black"/>
<path fill-rule="evenodd" clip-rule="evenodd" d="M45.1335 101.464L67.7647 93.8711C60.7633 101.046 53.898 106.183 45.1335 101.464Z" fill="black"/>
<path fill-rule="evenodd" clip-rule="evenodd" d="M52.3934 91.6739C42.9174 85.7513 44.9711 76.5139 47.9483 67.5781C53.7978 74.8929 58.6314 83.2338 52.3934 91.6739Z" fill="black"/>
<path fill-rule="evenodd" clip-rule="evenodd" d="M52.316 91.4345L48.0577 67.9023C54.1422 75.8799 58.233 83.4281 52.316 91.4345Z" fill="black"/>
<path fill-rule="evenodd" clip-rule="evenodd" d="M55.6981 90.2833C58.163 79.3753 67.5497 78.2912 76.9561 78.1797C71.9844 86.1123 65.7107 93.4199 55.6981 90.2833Z" fill="black"/>
<path fill-rule="evenodd" clip-rule="evenodd" d="M55.8979 90.1291L76.6866 78.3867C71.1671 86.759 65.396 93.1039 55.8979 90.1291Z" fill="black"/>
<path fill-rule="evenodd" clip-rule="evenodd" d="M58.5119 74.2557C48.423 69.462 49.41 60.0484 51.3487 50.8281C57.9937 57.4223 63.7465 65.1528 58.5119 74.2557Z" fill="black"/>
<path fill-rule="evenodd" clip-rule="evenodd" d="M58.4087 74.0266L51.4952 51.1367C58.4492 58.3626 63.3736 65.3912 58.4087 74.0266Z" fill="black"/>
<path fill-rule="evenodd" clip-rule="evenodd" d="M60.1949 77.3706C61.3498 66.2449 70.5406 64.0508 79.8663 62.8203C75.8701 71.2898 70.5072 79.2935 60.1949 77.3706Z" fill="black"/>
<path fill-rule="evenodd" clip-rule="evenodd" d="M60.3759 77.1982L79.6241 63.0625C75.1361 72.0338 70.1582 79.0216 60.3759 77.1982Z" fill="black"/>
<path fill-rule="evenodd" clip-rule="evenodd" d="M62.7583 56.0215C51.8541 53.599 50.7117 44.204 50.5401 34.7852C58.4904 39.7303 65.8251 45.982 62.7583 56.0215Z" fill="black"/>
<path fill-rule="evenodd" clip-rule="evenodd" d="M62.6044 55.8174L50.751 35.0547C59.144 40.5442 65.5145 46.2945 62.6044 55.8174Z" fill="black"/>
<path fill-rule="evenodd" clip-rule="evenodd" d="M64.8856 64.2215C61.7317 53.494 69.3957 47.9562 77.5499 43.2578C77.0692 52.6142 75.1484 62.0619 64.8856 64.2215Z" fill="black"/>
<path fill-rule="evenodd" clip-rule="evenodd" d="M64.9886 63.993L77.419 43.5742C76.6741 53.5824 74.7238 61.9438 64.9886 63.993Z" fill="black"/>
<path fill-rule="evenodd" clip-rule="evenodd" d="M58.4679 34.9298C47.3148 35.4889 43.7379 26.7305 41.0909 17.6914C50.0602 20.3499 58.7801 24.432 58.4679 34.9298Z" fill="black"/>
<path fill-rule="evenodd" clip-rule="evenodd" d="M58.2689 34.7811L41.3663 17.8945C50.9061 20.965 58.5647 24.8232 58.2689 34.7811Z" fill="black"/>
<path fill-rule="evenodd" clip-rule="evenodd" d="M65.6416 46.9745C58.9416 38.03 64.1908 30.1569 70.1924 22.8984C73.0079 31.832 74.5055 41.3556 65.6416 46.9745Z" fill="black"/>
<path fill-rule="evenodd" clip-rule="evenodd" d="M65.657 46.7258L70.1788 23.2422C72.9741 32.8789 74.0649 41.3953 65.657 46.7258Z" fill="black"/>
<path fill-rule="evenodd" clip-rule="evenodd" d="M53.5929 19.0125C42.4434 18.3634 39.825 9.27104 38.1612 0C46.7947 3.61157 55.0277 8.6113 53.5929 19.0125Z" fill="black"/>
<path fill-rule="evenodd" clip-rule="evenodd" d="M53.4115 18.8385L38.4131 0.230469C47.5701 4.31106 54.772 8.97188 53.4115 18.8385Z" fill="black"/>
<path fill-rule="evenodd" clip-rule="evenodd" d="M60.7024 28.6706C52.3268 21.2728 55.8689 12.4978 60.2725 4.17188C64.8422 12.3477 68.2413 21.3689 60.7024 28.6706Z" fill="black"/>
<path fill-rule="evenodd" clip-rule="evenodd" d="M60.6652 28.4205L60.3272 4.50781C65.0199 13.3762 67.8162 21.4937 60.6652 28.4205Z" fill="black"/>
</svg>
